<?xml version="1.0" encoding="UTF-8" standalone="no"?>
<!-- Created with Inkscape (http://www.inkscape.org/) -->

<svg
   width="210mm"
   height="297mm"
   viewBox="0 0 210 297"
   version="1.1"
   id="svg1"
   inkscape:export-filename="forall-phi.svg"
   inkscape:export-xdpi="96"
   inkscape:export-ydpi="96"
   inkscape:version="1.3.1 (91b66b0, 2023-11-16)"
   sodipodi:docname="formula.svg"
   xmlns:inkscape="http://www.inkscape.org/namespaces/inkscape"
   xmlns:sodipodi="http://sodipodi.sourceforge.net/DTD/sodipodi-0.dtd"
   xmlns="http://www.w3.org/2000/svg"
   xmlns:svg="http://www.w3.org/2000/svg">
  <sodipodi:namedview
     id="namedview1"
     pagecolor="#ffffff"
     bordercolor="#000000"
     borderopacity="0.25"
     inkscape:showpageshadow="2"
     inkscape:pageopacity="0.0"
     inkscape:pagecheckerboard="0"
     inkscape:deskcolor="#d1d1d1"
     inkscape:document-units="mm"
     showguides="true"
     inkscape:zoom="3.3638608"
     inkscape:cx="53.658581"
     inkscape:cy="98.993394"
     inkscape:window-width="1728"
     inkscape:window-height="1051"
     inkscape:window-x="0"
     inkscape:window-y="38"
     inkscape:window-maximized="1"
     inkscape:current-layer="layer1">
    <sodipodi:guide
       position="8.4538209,258.73534"
       orientation="1,0"
       id="guide1"
       inkscape:locked="false" />
    <sodipodi:guide
       position="9.0099936,274.64187"
       orientation="1,0"
       id="guide2"
       inkscape:locked="false" />
    <sodipodi:guide
       position="26.473808,287.54507"
       orientation="1,0"
       id="guide3"
       inkscape:locked="false" />
    <sodipodi:guide
       position="18.353691,299.00222"
       orientation="1,0"
       id="guide4"
       inkscape:locked="false" />
    <sodipodi:guide
       position="27.141215,298.22358"
       orientation="1,0"
       id="guide5"
       inkscape:locked="false" />
    <sodipodi:guide
       position="14.794187,307.12234"
       orientation="1,0"
       id="guide6"
       inkscape:locked="false" />
    <sodipodi:guide
       position="15.572828,273.64077"
       orientation="1,0"
       id="guide7"
       inkscape:locked="false" />
    <sodipodi:guide
       position="12.034163,296.92135"
       orientation="0,-1"
       id="guide8"
       inkscape:locked="false" />
    <sodipodi:guide
       position="22.731197,288.58395"
       orientation="0,-1"
       id="guide9"
       inkscape:locked="false" />
  </sodipodi:namedview>
  <defs
     id="defs1" />
  <g
     inkscape:label="Calque 1"
     inkscape:groupmode="layer"
     id="layer1">
    <path
       d="M 14.072022,8.4377286 H 12.765641 L 11.018287,6.0730128 9.259911,8.4377286 H 8.0527488 L 10.456046,5.3674565 8.0747974,2.2806478 H 9.381178 l 1.736328,2.3261309 1.741842,-2.3261309 h 1.212674 l -2.419837,3.0316871 z"
       id="text11"
       style="font-size:11.2889px;font-family:Sans;-inkscape-font-specification:'Sans, Normal';text-align:center;text-anchor:middle;fill:#010101;fill-rule:evenodd;stroke-width:9.35;stroke-linecap:round;stroke-linejoin:round;stroke-miterlimit:0;stroke-dasharray:18.7001, 18.7001;stroke-dashoffset:47.6851;stroke-opacity:0.850794"
       aria-label="x" />
    <path
       d="m 25.548319,4.2490592 q 0,0.7717022 -0.248047,1.3725275 -0.242535,0.5953131 -0.677995,0.9977006 -0.468534,0.4354605 -1.141017,0.694532 -0.672483,0.2535593 -1.433161,0.2700957 V 8.4989336 H 20.962203 V 7.583915 Q 20.223574,7.5673786 19.545579,7.3193314 18.867583,7.0712843 18.388026,6.6192873 17.952565,6.2113876 17.704518,5.6160745 17.461983,5.0207614 17.461983,4.2490592 q 0,-0.7496535 0.237023,-1.3118937 0.237023,-0.5622401 0.655947,-0.9811642 0.446484,-0.4464848 1.113456,-0.7055562 0.672483,-0.25907155 1.493794,-0.28112015 V 0.11494038 h 1.085896 v 0.85438457 q 0.815799,0.016536 1.493795,0.28663225 0.677995,0.2700958 1.113456,0.7000441 0.413411,0.4023876 0.650434,0.9756521 0.242535,0.5732644 0.242535,1.3174058 z m -1.135504,-0.044097 q 0,-0.5457037 -0.176389,-1.0032129 Q 24.060036,2.74424 23.734819,2.430047 23.415114,2.1213661 23.023751,1.97805 22.632387,1.8347339 22.048099,1.8237095 v 4.905821 q 0.518143,-0.011024 0.942579,-0.1653648 0.424436,-0.1598525 0.700044,-0.418924 0.35829,-0.3307295 0.540191,-0.8102873 0.181902,-0.4795578 0.181902,-1.1299922 z m -3.450612,2.5245683 v -4.905821 q -0.584288,0.00551 -0.975652,0.1543405 -0.391363,0.1488282 -0.711068,0.451997 -0.319705,0.3031687 -0.501606,0.7717021 -0.176389,0.4685335 -0.176389,1.0032129 0,0.6173617 0.181901,1.1189681 0.187413,0.5016064 0.540191,0.8213116 0.270096,0.2480471 0.694532,0.4134119 0.429949,0.1653647 0.948091,0.1708769 z"
       id="text12"
       style="font-size:11.2889px;font-family:Sans;-inkscape-font-specification:'Sans, Normal';text-align:center;text-anchor:middle;fill:#010101;fill-rule:evenodd;stroke-width:9.35;stroke-linecap:round;stroke-linejoin:round;stroke-miterlimit:0;stroke-dasharray:18.7001, 18.7001;stroke-dashoffset:47.6851;stroke-opacity:0.850794"
       aria-label="Φ" />
    <path
       d="M 32.063679,8.4377286 H 30.757297 L 29.009943,6.0730128 27.251564,8.4377286 H 26.044402 L 28.447703,5.3674565 26.06645,2.2806478 h 1.306382 l 1.73633,2.3261309 1.741842,-2.3261309 h 1.212675 l -2.419838,3.0316871 z"
       id="text13"
       style="font-size:11.2889px;font-family:Sans;-inkscape-font-specification:'Sans, Normal';text-align:center;text-anchor:middle;fill:#010101;fill-rule:evenodd;stroke-width:9.35;stroke-linecap:round;stroke-linejoin:round;stroke-miterlimit:0;stroke-dasharray:18.7001, 18.7001;stroke-dashoffset:47.6851;stroke-opacity:0.850794"
       aria-label="x" />
    <path
       d="M 0.06585241,0.15599448 H 1.2289179 L 2.033693,2.4435402 h 3.54983 L 6.3882981,0.15599448 H 7.496242 L 4.5086521,8.3635986 H 3.0534423 Z M 2.3699347,3.3806072 3.808608,7.409995 5.2527935,3.3806072 Z"
       id="text9"
       style="font-size:11.2889px;font-family:Sans;-inkscape-font-specification:'Sans, Normal';text-align:center;text-anchor:middle;fill:#010101;fill-rule:evenodd;stroke-width:9.35;stroke-linecap:round;stroke-linejoin:round;stroke-miterlimit:0;stroke-dasharray:18.7001, 18.7001;stroke-dashoffset:47.6851;stroke-opacity:0.850794"
       aria-label="A" />
  </g>
</svg>
